<?xml version="1.0" encoding="UTF-8"?>
<svg id="Capa_1" xmlns="http://www.w3.org/2000/svg" version="1.1" viewBox="0 0 907.09 752.05">
  <!-- Generator: Adobe Illustrator 29.8.1, SVG Export Plug-In . SVG Version: 2.1.1 Build 2)  -->
  <defs>
    <style>
      .st0 {
        fill: #faeed0;
      }

      .st1 {
        fill: #8bbad3;
      }

      .st2 {
        fill: #da8f74;
      }

      .st3 {
        fill: #a9d5ba;
      }
    </style>
  </defs>
  <path class="st2" d="M78.05,455.07c0-213.92,168.45-387.96,375.49-387.96s375.5,174.04,375.5,387.96c0,53.81-10.67,105.08-29.92,151.7-2.73,6.61,2.05,13.87,9.2,13.87h0c4.02,0,7.69-2.4,9.23-6.12,20.26-49.01,31.49-102.9,31.49-159.46,0-224.95-177.41-407.95-395.48-407.95S58.06,230.13,58.06,455.07c0,56.55,11.23,110.45,31.49,159.46,1.54,3.72,5.2,6.12,9.23,6.12h0c7.15,0,11.93-7.26,9.2-13.87-19.25-46.62-29.92-97.9-29.92-151.7Z"/>
  <g>
    <rect class="st2" x="208.52" y="689.98" width="46.45" height="9.17" rx="2.8" ry="2.8"/>
    <rect class="st2" x="652.11" y="689.98" width="46.45" height="9.17" rx="2.8" ry="2.8"/>
  </g>
  <path class="st1" d="M763.98,358.77c-24.26,24.72-58.51-18.71-27.12-35.26,22.54-11.88,45.14,16.9,27.12,35.26Z"/>
  <g>
    <g>
      <rect class="st1" x="576.22" y="313.54" width="92.92" height="218.25"/>
      <path class="st0" d="M308.1,292.9c-12.3-7.27-27.54-7.27-39.84,0-36.13,21.34-60.42,61.02-60.42,106.45v132.43h160.68v-132.43c0-45.43-24.28-85.11-60.42-106.45Z"/>
      <path class="st3" d="M736.82,441.19c-3.02-66.49-103.61-66.49-106.63,0-.06,1.24-.08,2.48-.08,3.73v86.87h106.8v-86.87c0-1.25-.03-2.49-.08-3.73Z"/>
      <path class="st1" d="M257.95,428.03c-20.33-18.24-49.46-18.94-70.17,1.46-9.9,9.76-17.6,29.51-17.6,43.41v58.88h106.8v-59.63c0-14.39-8.32-34.51-19.03-44.12Z"/>
      <path class="st2" d="M478.35,183.7c-3.17-3.61-8.78-3.61-11.95,0l-90.19,102.73c-4.96,5.64-7.69,12.9-7.69,20.41v224.94h207.7v-223.88c0-8.19-2.98-16.11-8.39-22.27l-89.49-101.94Z"/>
      <path class="st0" d="M612.28,253.39l-27.55,28.95c-10.91,10.11-8.51,13.36-8.51,21.29v9.91h92.92v-15.11c0-9.54-.77-11.06-8.58-19.62l-23.82-22.03c-1.87-1.73-3.52-3.66-5.26-5.51-5.32-5.66-12.7-3.77-19.2,2.12Z"/>
      <path class="st2" d="M688.73,501.5c.08-1.56.41-6.79.71-7.8.42-1.45,3.98-3.13,5.29-4.36,2.58-2.43,8.79-10.44,8.22-13.88-.29-1.74-2.21-3.12-3.97-2.3-2.86,1.34-6.55,8.43-9.37,10.49v-20.4c0-4.33-5.08-7.09-8.44-4.36-.9.73-1.49,1.73-1.49,2.93v21.28c-3.98-1.19-7.57-12.72-12.46-7.64-3.34,3.47,1.96,7.25,3.95,9.63,1.76,2.1,2.51,2.65,5.71,5.74-.29,13.66.51,27.38-.69,40.98h12.63c.23-10.01-.6-20.38-.08-30.29Z"/>
      <path class="st3" d="M310.3,494.99c-.34-12.62-.84-25.43-1.7-38.02-.55-6.02-1.79-12.1-.88-18.19l11.57-13.37c8.21-11.64,15.49-41.37,16.47-55.61.36-5.19-.47-12.52-7.47-10.87-4.38,1.04-2.9,10.26-3.31,13.7-1.48,12.47-5.14,26.84-10.14,38.37-1.26,2.91-3.75,8.11-5.53,10.64-.7.99-2.99,4.47-4.11,3.55-5.49-25.35-11.02-50.76-12.61-76.77-1.77-4.66-8.11-7.41-10.78-1.94-1.85,3.79-.34,13.68.19,18.2.81,6.87,2.35,13.71,3.3,20.57.2.45-.59,1.31-.81,1.33-.33.03-5.46-1.91-6.28-2.23-3.97-1.57-10.58-4.63-14.25-6.75-4.71-2.71-10.64-9.99-16.5-7.6-5.01,2.03-2.55,6.49-.71,9.78,8.43,9.87,23.05,14.88,35.18,18.72,1.27.61,2.54,1.26,3.83,1.84.68.76.48,1.86.71,2.7,1.93,13.26,4.01,26.5,6.24,39.72.33,6.22.46,12.78.59,18.98.52,23.31-.34,46.69-.08,70.01h16.72c.59-12.21.47-24.56.35-36.79Z"/>
      <path class="st2" d="M239.27,504.33c5.51-3.79,8.03-5.87,13.12-10.27,2.13-2.14,6.18-5.99,7.95-9.85,1.4-5.87-2.36-12.28-9.5-5.81-.55.49-6.37,7.2-10.93,12.62-.46.49-1.06.5-1.52.04-.54-.55-.05-10.4-.07-15.92-.01-2.69-2.17-5.1-4.86-4.97-1.61.08-2.39.53-3.08,2.53l-.12,16.89c0,.74-.79,1.29-1.44.94-4.1-2.21-5.77-10.88-8.79-12.28-3.52-1.63-6.85,3.68-5.98,7.09,1.31,5.11,11.93,12.56,15.54,16.82.5,9.82-.38,19.81.25,29.6h8.58c.15-8.98.43-18.83.83-27.45Z"/>
      <path class="st1" d="M484.21,530.24c-.11-7.19-.17-14.39-.18-21.58,0,0,1.71-38,2.7-50.71,11.02-12.33,24.05-22.68,33.1-36.69.42-.65,16.57-23.57,17.61-27.79,1.34-5.46-2.76-11.22-8.68-9.25-4.63,1.54-9.46,11.85-12.4,15.96-3.1,4.33-6.34,8.89-9.63,13.07-4.23,5.36-20.76,24.76-21.7,21.77-1.4-4.42-1.13-30.98-1.13-30.98,3.97-5.03,9.25-8.92,13.52-13.72,8.87-9.97,17.89-23.45,22.37-36.07,2.52-7.1,6.15-21.08.61-27.23-2.7-3-6.65-4.44-10.68-3.27-5.89,1.72-4.86,18.89-5.58,23.93-2.56,17.92-9.1,26.49-22.09,38.09-.35.31-1.62,1.4-1.97.86-.75-1.18-.17-13.01-.25-15.64-.61-18.71-.52-37.51-.54-56.15,0-1.27-.51-8.23-.73-8.96-.33-1.08-3.69-4.33-4.85-4.8-5.51-2.22-9.81-.23-10.38,5.8-.99,10.55.17,23.72.03,34.64-.01.96-.58,38.29-.58,38.29-2.71-1.71-19.07-24.55-21.84-31.21-2.12-5.11-2.67-9.64-3.96-14.76-1.84-7.31-4.48-11.47-12.78-9.06-3.04,2.27-4.09,2.13-5.11,6.24-.58,2.35,13.4,39.07,16.42,44,3.8,6.21,8.49,13.66,13.11,19.25.42.51,11.33,10.74,11.33,13.63v34.04c0,.22-.73.86-1.33.78-2.54-.37-5.9-3.5-8.21-5.29-.54-.42-6.65-5.73-6.8-5.84l-3.55-3.02c-7.36-6.55-8.41-9.74-13.88-17.95,0,0-12.9-23.25-14.34-25-.02-.03-.03-.05-.05-.08-1.72-2.76-5.6-3.13-7.99-.93-1,.92-2.14,1.97-3.21,2.96-2.38,2.21-3.22,5.62-2.11,8.67.1.26.19.53.29.81,4.39,11.99,9.44,22.1,18.06,31.51,11.39,12.44,17.29,17.76,27.13,24.21.68.45,7.71,4.39,12.57,6.48.32.23.94.36,1.13.57l.54,71.97h26.1c-.05-.67-.09-1.24-.11-1.54Z"/>
      <path class="st0" d="M635,515.73c.21-13.59-2.01-36.91.54-49.1l1.96-3.07c11.96-12.22,18.38-17.13,33.47-44.26.12-.21,1.02-2.77.82-3.12-.29-4.29-1.29-6.35-5.66-6.64-1.78-.24-3.66.95-5.7,3.6-3.28,8.6-21.13,33.29-22.08,31.59-1.1-1.99-.95-21.73.36-24.27,4.48-4.96,17.95-20.05,19.31-25.26.11-.43-.26-3.11-2.09-4.28-5.91-3.79-12.16,6.02-15.29,9.9-2.05,2.54-3.54,4.9-5.43,7.35-.61.8-.93,1.44-1.95.6-.97-11.16,1.12-26.11-.57-36.88-.79-5.08-7.33-11.09-11.76-6.65-1.59,1.59-1.3,3.4-.7,5.19.68,2.01,1.21,4.08,1.36,6.2.74,10.67.07,21.44.32,32.14.1,4.51.27,8.57.57,13.05l-1.7,11.92c-1.58-2.5-8.14-7.92-10.76-11.08-2.45-2.94-10.92-16.24-13.37-16.72-3.76-.73-6.48,2.47-5.55,6.13,1.97,7.76,13.88,21.1,20.03,26.5,1.98,1.74,7.94,7.09,10.09,8.1.44.21.7.63.7,1.11l-.53,84.02h13.28c-.16-6.37.32-15.01.33-16.06Z"/>
    </g>
    <circle class="st0" cx="566.04" cy="191.95" r="34.06"/>
    <path class="st3" d="M360.02,181.74c-9.65-5.2-20.03-2.31-25.51,7-1.75,2.97-2.09,3.45-2.36,7.09-.06.77-.03,1.59,0,2.36.15,4.1.49,5.2,2.36,8.67,4.41,8.16,12.18,13.34,21.34,9.11,1.35-.62,1.75-1.68,2.29-2.02.17-.06.35-.19.53-.36,5.37-3.48,9.07-7.24,9.7-14.23.72-7.98-1.08-13.7-8.36-17.63Z"/>
  </g>
  <g>
    <path class="st1" d="M255.95,618.29c-.18,1.33-.67,2.46-1.45,3.4-.79.94-1.69,1.59-2.72,1.95-1.03.36-2.09.38-3.17.04-1.09-.33-1.99-1.13-2.72-2.4-.61-1.03-.95-2.1-1.04-3.22-.09-1.12-.2-2.28-.32-3.49-.12-1.33-.26-2.49-.41-3.49-.15-1-.32-2.16-.5-3.49-.54-3.63-1.15-7.21-1.81-10.74-.67-3.54-1.42-7.09-2.27-10.65-1.21,3.02-2.36,6.02-3.45,8.98-1.09,2.96-2.18,5.95-3.26,8.98-.85,2.24-1.68,4.49-2.49,6.75-.82,2.27-1.77,4.46-2.86,6.57-.36.73-.97,1.31-1.81,1.77-.85.45-1.75.71-2.72.77-.97.06-1.87-.07-2.72-.41-.85-.33-1.48-.89-1.9-1.68-2.6-5.02-5.17-10-7.71-14.96-2.54-4.96-5.08-9.94-7.62-14.96-.3,3.08-.57,6.18-.82,9.29-.24,3.11-.51,6.21-.82,9.29-.06.97-.12,2.15-.18,3.54-.06,1.39-.17,2.8-.32,4.22-.15,1.42-.33,2.78-.54,4.08-.21,1.3-.56,2.31-1.04,3.04-.73,1.21-1.68,1.99-2.86,2.36-1.18.36-2.33.39-3.44.09-1.12-.3-2.06-.92-2.81-1.86-.76-.94-1.1-2.13-1.04-3.58.12-2.48.33-4.93.63-7.34.3-2.42.57-4.87.82-7.34.48-5.38.98-10.73,1.5-16.05.51-5.32,1.01-10.7,1.5-16.14.12-1.57.44-3.02.95-4.35.51-1.33,1.62-2.27,3.31-2.81.66-.24,1.36-.33,2.08-.27.73.06,1.39.27,1.99.63,1.33.85,2.37,2.01,3.13,3.49.76,1.48,1.47,2.89,2.13,4.22,1.15,2.18,2.27,4.37,3.35,6.57,1.09,2.21,2.18,4.4,3.26,6.57,1.33,2.78,2.67,5.52,4.03,8.21,1.36,2.69,2.77,5.39,4.22,8.11.36-.91.71-1.81,1.04-2.72.33-.91.68-1.81,1.04-2.72.66-1.57,1.28-3.16,1.86-4.76.57-1.6,1.16-3.19,1.77-4.76.85-2.05,1.65-4.08,2.4-6.07.76-1.99,1.5-4.02,2.22-6.07.6-1.51,1.18-3.14,1.72-4.9.54-1.75,1.42-3.23,2.63-4.44.85-.91,1.77-1.45,2.77-1.63,1-.18,1.93-.1,2.81.23.88.33,1.66.89,2.36,1.68.69.79,1.19,1.69,1.5,2.72.36,1.39.78,2.96,1.27,4.71.48,1.75.91,3.33,1.27,4.72.66,2.54,1.27,5.03,1.81,7.48s1.06,4.94,1.54,7.48c.85,4.17,1.59,8.3,2.22,12.38.63,4.08,1.19,8.21,1.68,12.38v.63Z"/>
    <path class="st1" d="M313.88,597.52c-1.03,3.39-2.34,6.69-3.94,9.93-1.6,3.23-3.55,6.12-5.85,8.66-2.3,2.54-4.97,4.59-8.02,6.17-3.05,1.57-6.54,2.36-10.47,2.36-2.54-.12-4.55-.35-6.03-.68-1.48-.33-2.92-.83-4.31-1.5-2.48-.73-4.61-1.89-6.39-3.49-1.78-1.6-3.28-3.46-4.49-5.58-1.21-2.12-2.13-4.37-2.77-6.76-.63-2.39-1.04-4.7-1.22-6.94-.3-3.93.03-7.92,1-11.97.97-4.05,2.51-7.78,4.62-11.2,2.11-3.41,4.77-6.35,7.98-8.79,3.2-2.45,6.86-4.06,10.97-4.85,2.12-.36,4.26-.48,6.44-.36,2.18.12,4.29.54,6.35,1.27,1.69.61,3.26,1.3,4.71,2.09,1.45.79,2.84,1.78,4.17,2.99,1.75,1.57,3.23,3.39,4.44,5.44,1.21,2.06,2.09,4.2,2.63,6.44.66,2.84.97,5.65.91,8.43-.06,2.78-.3,5.56-.73,8.34ZM290.4,612.85c1.81-.78,3.4-1.83,4.76-3.13,1.36-1.3,2.55-2.73,3.58-4.31,1.03-1.57,1.89-3.25,2.58-5.03.69-1.78,1.31-3.58,1.86-5.39.36-2.3.56-4.65.59-7.07.03-2.42-.47-4.72-1.5-6.89-.85-1.81-2.13-3.37-3.85-4.67-1.72-1.3-3.61-2.21-5.67-2.72-2.06-.51-4.13-.62-6.21-.32-2.09.3-3.94,1.12-5.58,2.45-2.3,1.93-4.16,4.1-5.58,6.48-1.42,2.39-2.49,5.03-3.22,7.93-.61,2.3-.94,4.72-1,7.25-.06,2.54.33,4.96,1.18,7.25.66,1.69,1.65,3.23,2.95,4.62,1.3,1.39,2.77,2.48,4.4,3.26,1.63.79,3.37,1.22,5.21,1.31,1.84.09,3.67-.26,5.48-1.04Z"/>
    <path class="st1" d="M359.31,566.88c.36-1.21.95-2.21,1.77-2.99.82-.78,1.71-1.3,2.67-1.54.97-.24,1.95-.18,2.95.18,1,.36,1.86,1.09,2.58,2.18.24.3.47.67.68,1.09.21.42.32.82.32,1.18.12,8.64.08,17.27-.14,25.88-.21,8.61-.56,17.24-1.04,25.89,0,1.39-.44,2.48-1.32,3.26-.88.78-1.87,1.28-2.99,1.5-1.12.21-2.25.09-3.4-.36-1.15-.45-1.99-1.22-2.54-2.31-.06-.06-.09-.12-.09-.18v.18c-3.93-6.47-8.07-12.68-12.42-18.63-4.35-5.95-8.88-11.86-13.6-17.73v27.47c0,1.87-.03,3.4-.09,4.58-.06,1.18-.14,2.1-.23,2.77-.09.67-.23,1.24-.41,1.72-.54,1.45-1.38,2.42-2.49,2.9-1.12.48-2.25.6-3.4.36-1.15-.24-2.15-.85-2.99-1.81-.85-.97-1.27-2.18-1.27-3.63v-25.3c0-2.54-.02-4.91-.04-7.12-.03-2.21-.05-4.06-.05-5.58,0-2.05-.03-4.09-.09-6.12-.06-2.02-.06-4.06,0-6.12,0-1.03.26-1.9.77-2.63.51-.73,1.16-1.28,1.95-1.68.78-.39,1.63-.62,2.54-.68.91-.06,1.78.06,2.63.36.73.24,1.47.74,2.22,1.5.76.76,1.5,1.57,2.22,2.45.73.88,1.41,1.75,2.04,2.63.63.88,1.16,1.59,1.59,2.13,1.57,1.93,3.38,4.16,5.44,6.66,2.05,2.51,3.96,4.88,5.71,7.12,1.75,2.3,3.46,4.59,5.12,6.89,1.66,2.3,3.28,4.59,4.85,6.89.18-5.5.3-10.97.36-16.41.06-5.44.09-10.91.09-16.41l.09-.54Z"/>
    <path class="st1" d="M417.69,564.89c1.15.48,2.1,1.26,2.86,2.31.76,1.06,1.21,2.15,1.36,3.26.15,1.12-.06,2.13-.63,3.04-.58.91-1.59,1.51-3.04,1.81-2.78.48-5.39.7-7.84.63-2.45-.06-4.58-.09-6.39-.09,0,7.25.03,14.39.09,21.4.06,7.01.03,14.42-.09,22.21,0,1.69-.58,2.92-1.72,3.67-1.15.76-2.4,1.07-3.76.95-1.36-.12-2.62-.67-3.76-1.63-1.15-.97-1.72-2.3-1.72-3.99-.06-7.13-.09-14.23-.09-21.31v-21.31c-.54,0-1.47.03-2.77.09-1.3.06-2.72.08-4.26.05-1.54-.03-3.13-.15-4.76-.36-1.63-.21-3.05-.62-4.26-1.22-.97-.48-1.6-1.19-1.9-2.13-.3-.94-.32-1.89-.05-2.86.27-.97.77-1.87,1.5-2.72.73-.85,1.63-1.42,2.72-1.72,5.08-.3,9.99-.41,14.73-.32,4.74.09,9.57.14,14.46.14,1.45,0,2.9-.01,4.35-.05,1.45-.03,2.93-.05,4.44-.05l.54.18Z"/>
    <path class="st1" d="M459.94,609.4c1.09.06,2.04.35,2.86.86.82.51,1.48,1.13,1.99,1.86.51.73.82,1.56.91,2.49.09.94-.11,1.89-.59,2.86-.18.42-.56.92-1.13,1.5-.58.58-1.1.92-1.59,1.04-3.87,1.15-7.84,1.86-11.92,2.13-4.08.27-8.11.2-12.1-.23-1.15-.12-2.4-.24-3.76-.36-1.36-.12-2.55-.51-3.58-1.18-1.87-1.21-2.81-2.93-2.81-5.17v-38.62c-.67-.48-1.21-1.09-1.63-1.81-.42-.72-.68-1.5-.77-2.31-.09-.82.01-1.6.32-2.36.3-.76.82-1.41,1.54-1.95,1.21-.97,2.6-1.62,4.17-1.95,1.57-.33,3.11-.62,4.62-.86,3.14-.48,6.29-.73,9.43-.73s6.35-.03,9.61-.09c.97,0,2.08-.07,3.35-.23,1.27-.15,2.39-.04,3.35.32,1.15.42,2.05,1.09,2.72,1.99.66.91,1.06,1.87,1.18,2.9.12,1.03-.08,2.03-.59,2.99-.51.97-1.41,1.72-2.67,2.27-1.51.61-3.13.88-4.85.82-1.72-.06-3.37-.09-4.94-.09-2.3,0-4.59.03-6.89.09-2.3.06-4.59.24-6.89.54v12.6c2.18.12,4.35.12,6.53,0,2.18-.12,4.35-.27,6.53-.45.97-.06,1.93-.15,2.9-.27.97-.12,1.96-.12,2.99,0,1.33.18,2.36.73,3.08,1.63.73.91,1.16,1.92,1.31,3.04.15,1.12-.04,2.22-.59,3.31s-1.42,1.87-2.63,2.36c-1.03.42-2.42.74-4.17.95-1.75.21-3.6.36-5.53.45-1.93.09-3.84.14-5.71.14s-3.45-.03-4.71-.09v11.15c3.32.42,6.68.48,10.06.18,3.38-.3,6.71-.88,9.97-1.72h.63Z"/>
    <path class="st1" d="M474.72,614.3c-.42-1.15-.56-2.3-.41-3.45.15-1.15.54-2.13,1.18-2.95.63-.82,1.47-1.39,2.49-1.72,1.03-.33,2.18-.23,3.45.32,1.15.48,2.13,1.19,2.95,2.13.82.94,1.8,1.68,2.95,2.22,1.57.79,3.17,1.36,4.81,1.72,1.15.3,2.3.5,3.44.59,1.15.09,2.33.14,3.54.14.91-.24,1.69-.48,2.36-.72.66-.24,1.39-.76,2.18-1.54.91-.79,1.5-1.72,1.77-2.81.27-1.09.27-2.16,0-3.22-.27-1.06-.79-2.02-1.54-2.9-.76-.88-1.68-1.46-2.77-1.77-2.12-.73-4.23-1.28-6.35-1.68-2.12-.39-4.17-.86-6.17-1.41-1.99-.54-3.88-1.32-5.67-2.31-1.78-1-3.43-2.43-4.94-4.31-.85-1.03-1.39-1.93-1.63-2.72-.24-.79-.51-1.78-.82-2.99-.54-2.9-.32-5.35.68-7.34,1-1.99,2.25-3.81,3.76-5.44,1.93-2.12,4.13-3.73,6.57-4.85,2.45-1.12,5.02-1.84,7.71-2.18,2.69-.33,5.41-.27,8.16.18,2.75.45,5.36,1.22,7.84,2.31,1.45.61,2.37,1.54,2.77,2.81.39,1.27.41,2.51.05,3.72-.36,1.21-1.06,2.21-2.09,2.99-1.03.79-2.24,1.06-3.63.82-1.45-.3-2.81-.62-4.08-.95-1.27-.33-2.54-.62-3.81-.86-.97-.18-2.01-.21-3.13-.09-1.12.12-2.18.32-3.17.59-1,.27-1.92.58-2.77.91-.85.33-1.48.68-1.9,1.04-.48.42-.95.97-1.41,1.63-.45.67-.71,1.42-.77,2.27-.12,1.03.27,1.87,1.18,2.54.91.67,1.87,1.15,2.9,1.45,1.99.42,4.05.83,6.17,1.22,2.12.39,4.2.94,6.26,1.63,2.05.7,3.97,1.59,5.76,2.67,1.78,1.09,3.31,2.54,4.58,4.35,1.39,1.57,2.39,3.36,2.99,5.35.6,1.99.83,3.99.68,5.98-.15,1.99-.62,3.91-1.41,5.76-.79,1.84-1.87,3.46-3.26,4.85-.97.97-1.98,1.8-3.04,2.49-1.06.69-2.19,1.37-3.4,2.04-2.42,1.27-5.02,1.9-7.8,1.9s-5.56-.41-8.34-1.22c-2.78-.82-5.41-1.96-7.89-3.44-2.48-1.48-4.59-3.1-6.35-4.85l-.63-.91Z"/>
    <path class="st1" d="M524.77,614.3c-.42-1.15-.56-2.3-.41-3.45.15-1.15.54-2.13,1.18-2.95.63-.82,1.47-1.39,2.49-1.72,1.03-.33,2.18-.23,3.45.32,1.15.48,2.13,1.19,2.95,2.13.82.94,1.8,1.68,2.95,2.22,1.57.79,3.17,1.36,4.81,1.72,1.15.3,2.3.5,3.44.59,1.15.09,2.33.14,3.54.14.91-.24,1.69-.48,2.36-.72.66-.24,1.39-.76,2.18-1.54.91-.79,1.5-1.72,1.77-2.81.27-1.09.27-2.16,0-3.22-.27-1.06-.79-2.02-1.54-2.9-.76-.88-1.68-1.46-2.77-1.77-2.12-.73-4.23-1.28-6.35-1.68-2.12-.39-4.17-.86-6.17-1.41-1.99-.54-3.88-1.32-5.67-2.31-1.78-1-3.43-2.43-4.94-4.31-.85-1.03-1.39-1.93-1.63-2.72-.24-.79-.51-1.78-.82-2.99-.54-2.9-.32-5.35.68-7.34,1-1.99,2.25-3.81,3.76-5.44,1.93-2.12,4.13-3.73,6.57-4.85,2.45-1.12,5.02-1.84,7.71-2.18,2.69-.33,5.41-.27,8.16.18,2.75.45,5.36,1.22,7.84,2.31,1.45.61,2.37,1.54,2.77,2.81.39,1.27.41,2.51.05,3.72-.36,1.21-1.06,2.21-2.09,2.99-1.03.79-2.24,1.06-3.63.82-1.45-.3-2.81-.62-4.08-.95-1.27-.33-2.54-.62-3.81-.86-.97-.18-2.01-.21-3.13-.09-1.12.12-2.18.32-3.17.59-1,.27-1.92.58-2.77.91-.85.33-1.48.68-1.9,1.04-.48.42-.95.97-1.41,1.63-.45.67-.71,1.42-.77,2.27-.12,1.03.27,1.87,1.18,2.54.91.67,1.87,1.15,2.9,1.45,1.99.42,4.05.83,6.17,1.22,2.12.39,4.2.94,6.26,1.63,2.05.7,3.97,1.59,5.76,2.67,1.78,1.09,3.31,2.54,4.58,4.35,1.39,1.57,2.39,3.36,2.99,5.35.6,1.99.83,3.99.68,5.98-.15,1.99-.62,3.91-1.41,5.76-.79,1.84-1.87,3.46-3.26,4.85-.97.97-1.98,1.8-3.04,2.49-1.06.69-2.19,1.37-3.4,2.04-2.42,1.27-5.02,1.9-7.8,1.9s-5.56-.41-8.34-1.22c-2.78-.82-5.41-1.96-7.89-3.44-2.48-1.48-4.59-3.1-6.35-4.85l-.63-.91Z"/>
    <path class="st1" d="M626.22,597.52c-1.03,3.39-2.34,6.69-3.94,9.93-1.6,3.23-3.55,6.12-5.85,8.66-2.3,2.54-4.97,4.59-8.02,6.17-3.05,1.57-6.54,2.36-10.47,2.36-2.54-.12-4.55-.35-6.03-.68-1.48-.33-2.92-.83-4.31-1.5-2.48-.73-4.61-1.89-6.39-3.49-1.78-1.6-3.28-3.46-4.49-5.58-1.21-2.12-2.13-4.37-2.77-6.76-.63-2.39-1.04-4.7-1.22-6.94-.3-3.93.03-7.92,1-11.97.97-4.05,2.51-7.78,4.62-11.2,2.11-3.41,4.77-6.35,7.98-8.79,3.2-2.45,6.86-4.06,10.97-4.85,2.12-.36,4.26-.48,6.44-.36,2.18.12,4.29.54,6.35,1.27,1.69.61,3.26,1.3,4.71,2.09,1.45.79,2.84,1.78,4.17,2.99,1.75,1.57,3.23,3.39,4.44,5.44,1.21,2.06,2.09,4.2,2.63,6.44.66,2.84.97,5.65.91,8.43-.06,2.78-.3,5.56-.73,8.34ZM602.74,612.85c1.81-.78,3.4-1.83,4.76-3.13,1.36-1.3,2.55-2.73,3.58-4.31,1.03-1.57,1.89-3.25,2.58-5.03.69-1.78,1.31-3.58,1.86-5.39.36-2.3.56-4.65.59-7.07.03-2.42-.47-4.72-1.5-6.89-.85-1.81-2.13-3.37-3.85-4.67-1.72-1.3-3.61-2.21-5.67-2.72-2.06-.51-4.13-.62-6.21-.32-2.09.3-3.94,1.12-5.58,2.45-2.3,1.93-4.16,4.1-5.58,6.48-1.42,2.39-2.49,5.03-3.22,7.93-.61,2.3-.94,4.72-1,7.25-.06,2.54.33,4.96,1.18,7.25.66,1.69,1.65,3.23,2.95,4.62,1.3,1.39,2.77,2.48,4.4,3.26,1.63.79,3.37,1.22,5.21,1.31,1.84.09,3.67-.26,5.48-1.04Z"/>
    <path class="st1" d="M646.8,618.38c-.18,1.51-.82,2.75-1.9,3.72-1.09.97-2.27,1.59-3.54,1.86-1.27.27-2.43.14-3.49-.41-1.06-.54-1.62-1.63-1.68-3.26-.3-6.95-.45-14.16-.45-21.62v-22.26c-.97-.36-1.69-.91-2.18-1.63-.48-.72-.77-1.53-.86-2.4-.09-.88.01-1.77.32-2.67.3-.91.76-1.69,1.36-2.36.66-.73,1.57-1.39,2.72-1.99,1.15-.6,2.4-1.16,3.76-1.68,1.36-.51,2.71-.95,4.03-1.32,1.33-.36,2.45-.63,3.36-.82,3.81-.78,7.65-.77,11.51.05,3.87.82,7.27,2.28,10.2,4.4,2.93,2.12,5.12,4.87,6.57,8.25,1.45,3.39,1.6,7.25.45,11.61-.36,1.21-.82,2.42-1.36,3.63-.54,1.21-1.18,2.33-1.9,3.35-1.03,1.57-2.24,2.96-3.63,4.17-1.39,1.21-2.9,2.33-4.53,3.36,1.15,1.21,2.24,2.48,3.26,3.81,1.03,1.33,2.18,2.54,3.45,3.63.48.42,1.19,1.09,2.13,1.99.94.91,1.84,1.87,2.72,2.9.88,1.03,1.65,2.04,2.31,3.04.66,1,.97,1.83.91,2.49-.06,1.15-.38,2.19-.95,3.13-.57.94-1.27,1.66-2.08,2.18-.82.51-1.71.77-2.67.77s-1.94-.33-2.9-1c-1.09-.85-2.12-1.84-3.08-2.99-.97-1.15-1.9-2.21-2.81-3.17-1.99-2.18-3.94-4.37-5.85-6.57-1.9-2.21-3.85-4.37-5.85-6.48-1.21.24-2.43.41-3.67.5-1.24.09-2.46.2-3.67.32v13.51ZM663.03,574.5c-2.42-1.45-5.06-2.27-7.93-2.45-2.87-.18-5.64.21-8.3,1.18v20.49c2.72-.18,5.39-.53,8.02-1.04,2.63-.51,5.06-1.65,7.3-3.4,1.21-.97,2.19-2.1,2.95-3.4.76-1.3,1.21-2.63,1.36-3.99.15-1.36-.03-2.69-.54-3.99-.51-1.3-1.47-2.43-2.86-3.4Z"/>
    <path class="st1" d="M711.9,611.12c1.57.06,2.87.53,3.9,1.41,1.03.88,1.69,1.89,1.99,3.04.3,1.15.21,2.28-.27,3.4-.48,1.12-1.48,1.98-2.99,2.58-1.09.42-2.37.69-3.85.82-1.48.12-2.96.17-4.44.14-1.48-.03-2.86-.09-4.12-.18-1.27-.09-2.24-.14-2.9-.14h-5.35c-1.27,0-2.36-.35-3.26-1.04s-1.56-1.53-1.95-2.49c-.39-.97-.48-1.99-.27-3.08.21-1.09.77-2.08,1.68-2.99.85-.85,1.96-1.33,3.35-1.45,1.39-.12,2.78-.12,4.17,0v-35.9c-1.39,0-2.69-.01-3.9-.04-1.21-.03-2.42-.47-3.63-1.32-.91-.66-1.51-1.43-1.81-2.31-.3-.88-.35-1.75-.14-2.63.21-.88.62-1.71,1.22-2.49.6-.78,1.36-1.36,2.27-1.72.85-.36,1.72-.54,2.63-.54,3.08,0,6.18-.01,9.29-.05,3.11-.03,6.24-.01,9.38.05.3,0,.59.09.86.27.27.18.56.33.86.45,1.39.79,2.33,1.9,2.81,3.35.48,1.45.3,2.87-.54,4.26-.42.72-.95,1.28-1.59,1.68-.63.39-1.33.67-2.08.82-.76.15-1.53.23-2.31.23h-2.27v36.08c.48,0,.92-.01,1.31-.05.39-.03.83-.07,1.32-.14h.63Z"/>
    <path class="st1" d="M412.22,700.73c-.12.87-.43,1.6-.94,2.21-.51.61-1.1,1.03-1.77,1.27-.67.24-1.36.25-2.07.03-.71-.22-1.3-.74-1.77-1.56-.39-.67-.62-1.37-.68-2.1-.06-.73-.13-1.48-.21-2.27-.08-.87-.17-1.62-.27-2.27-.1-.65-.21-1.41-.32-2.27-.35-2.36-.75-4.69-1.18-7-.43-2.3-.92-4.61-1.48-6.94-.79,1.97-1.53,3.92-2.24,5.84-.71,1.93-1.42,3.88-2.13,5.84-.55,1.46-1.09,2.92-1.62,4.4-.53,1.48-1.15,2.9-1.86,4.28-.24.47-.63.86-1.18,1.15-.55.3-1.14.46-1.77.5-.63.04-1.22-.05-1.77-.27-.55-.22-.96-.58-1.24-1.09-1.69-3.27-3.36-6.51-5.02-9.74-1.65-3.23-3.31-6.47-4.96-9.74-.2,2.01-.37,4.02-.53,6.05-.16,2.03-.33,4.04-.53,6.05-.04.63-.08,1.4-.12,2.3-.04.91-.11,1.82-.21,2.74-.1.93-.22,1.81-.35,2.66-.14.85-.36,1.51-.68,1.98-.47.79-1.09,1.3-1.86,1.53s-1.52.26-2.24.06c-.73-.2-1.34-.6-1.83-1.21-.49-.61-.72-1.39-.68-2.33.08-1.61.22-3.21.41-4.78.2-1.57.37-3.17.53-4.78.31-3.5.64-6.99.97-10.45.33-3.46.66-6.97.97-10.51.08-1.02.28-1.97.62-2.83.33-.87,1.05-1.48,2.16-1.83.43-.16.89-.22,1.36-.18.47.04.9.18,1.3.41.87.55,1.54,1.31,2.04,2.27s.95,1.88,1.39,2.74c.75,1.42,1.48,2.84,2.18,4.28.71,1.44,1.42,2.86,2.13,4.28.87,1.81,1.74,3.59,2.63,5.34.89,1.75,1.8,3.51,2.75,5.28.24-.59.46-1.18.68-1.77.22-.59.44-1.18.68-1.77.43-1.02.84-2.06,1.21-3.1s.76-2.08,1.15-3.1c.55-1.34,1.07-2.66,1.56-3.96.49-1.3.97-2.62,1.45-3.96.39-.98.77-2.05,1.12-3.19.35-1.14.92-2.11,1.71-2.89.55-.59,1.15-.94,1.8-1.06s1.26-.07,1.83.15c.57.22,1.08.58,1.53,1.09.45.51.78,1.1.97,1.77.24.91.51,1.93.83,3.07.31,1.14.59,2.16.83,3.07.43,1.65.83,3.28,1.18,4.87.35,1.59.69,3.22,1,4.87.55,2.72,1.03,5.4,1.45,8.06.41,2.66.78,5.34,1.09,8.06v.41Z"/>
    <path class="st1" d="M431.23,696.07c1.02.04,1.87.34,2.54.92.67.57,1.1,1.23,1.3,1.98.2.75.14,1.49-.18,2.21-.32.73-.96,1.29-1.95,1.68-.71.27-1.54.45-2.51.53-.97.08-1.93.11-2.89.09-.97-.02-1.86-.06-2.69-.12-.83-.06-1.46-.09-1.89-.09h-3.48c-.83,0-1.53-.23-2.12-.68-.59-.45-1.01-.99-1.27-1.62-.26-.63-.32-1.3-.18-2.01.14-.71.5-1.36,1.09-1.95.55-.55,1.28-.87,2.18-.94.91-.08,1.81-.08,2.72,0v-23.38c-.91,0-1.75,0-2.54-.03-.79-.02-1.57-.3-2.36-.86-.59-.43-.98-.93-1.18-1.51-.2-.57-.23-1.14-.09-1.71.14-.57.4-1.11.8-1.62.39-.51.89-.89,1.48-1.12.55-.24,1.12-.35,1.71-.35,2.01,0,4.02,0,6.05-.03,2.03-.02,4.06,0,6.11.03.2,0,.38.06.56.18.18.12.36.22.56.3.91.51,1.52,1.24,1.83,2.18.31.94.2,1.87-.35,2.77-.28.47-.62.84-1.03,1.09-.41.26-.87.43-1.36.53-.49.1-.99.15-1.51.15h-1.48v23.5c.31,0,.6,0,.86-.03.26-.02.54-.05.86-.09h.41Z"/>
    <path class="st1" d="M464.41,667.26c.24-.79.62-1.44,1.15-1.95.53-.51,1.11-.85,1.74-1,.63-.16,1.27-.12,1.92.12.65.24,1.21.71,1.68,1.42.16.2.3.43.44.71.14.28.21.53.21.77.08,5.63.05,11.25-.09,16.85-.14,5.61-.36,11.23-.68,16.85,0,.91-.29,1.61-.86,2.13-.57.51-1.22.84-1.95.97-.73.14-1.47.06-2.21-.24-.75-.29-1.3-.8-1.65-1.51-.04-.04-.06-.08-.06-.12v.12c-2.56-4.21-5.25-8.25-8.09-12.13-2.83-3.88-5.78-7.72-8.86-11.54v17.89c0,1.22-.02,2.21-.06,2.98-.04.77-.09,1.37-.15,1.8-.06.43-.15.81-.27,1.12-.35.94-.9,1.57-1.62,1.89-.73.31-1.47.39-2.21.24-.75-.16-1.4-.55-1.95-1.18-.55-.63-.83-1.42-.83-2.36v-16.47c0-1.65-.01-3.2-.03-4.63-.02-1.44-.03-2.65-.03-3.63,0-1.34-.02-2.67-.06-3.98-.04-1.32-.04-2.65,0-3.98,0-.67.17-1.24.5-1.71.33-.47.76-.84,1.27-1.09.51-.26,1.06-.4,1.65-.44.59-.04,1.16.04,1.71.24.47.16.95.48,1.45.97.49.49.97,1.02,1.45,1.59.47.57.92,1.14,1.33,1.71.41.57.76,1.03,1.03,1.39,1.02,1.26,2.2,2.71,3.54,4.34,1.34,1.63,2.58,3.18,3.72,4.63,1.14,1.5,2.25,2.99,3.34,4.49,1.08,1.5,2.13,2.99,3.16,4.49.12-3.58.2-7.14.24-10.69s.06-7.1.06-10.68l.06-.35Z"/>
    <path class="st1" d="M482,704.51c-1.02-.2-1.9-.67-2.63-1.42-.73-.75-1.09-1.67-1.09-2.77v-24.85c-.71.12-1.4.03-2.07-.27-.67-.29-1.2-.69-1.59-1.18-.39-.49-.62-1.06-.68-1.71-.06-.65.15-1.27.62-1.86.51-.67,1.12-1.23,1.83-1.68.71-.45,1.46-.83,2.24-1.12.79-.29,1.6-.54,2.45-.74.85-.2,1.66-.37,2.45-.53,2.2-.35,4.41-.44,6.61-.27,2.2.18,4.29.66,6.26,1.45,1.97.79,3.77,1.89,5.4,3.31,1.63,1.42,2.96,3.19,3.98,5.31.63,1.3,1.08,2.65,1.36,4.04.27,1.4.43,2.8.47,4.22.04,1.85-.18,3.64-.65,5.37-.47,1.73-1.18,3.36-2.12,4.87-.94,1.52-2.09,2.86-3.42,4.04-1.34,1.18-2.83,2.17-4.49,2.95-1.46.67-3,1.16-4.63,1.48-1.63.31-3.24.59-4.81.83-.79.12-1.62.24-2.51.38-.89.14-1.74.21-2.57.21l-.41-.06ZM488.38,673.16c-.51,0-.99.02-1.45.06-.45.04-.94.1-1.45.18v23.67c.24,0,.43-.02.59-.06.16-.04.31-.06.47-.06s.29-.02.41-.06c.55-.08,1-.14,1.36-.18.35-.04.69-.09,1-.15.31-.06.64-.13.97-.21.33-.08.72-.18,1.15-.29,2.28-.59,4.08-1.52,5.4-2.8,1.32-1.28,2.31-3.04,2.98-5.28.43-1.3.63-2.62.59-3.96-.04-1.34-.29-2.62-.74-3.84-.45-1.22-1.11-2.33-1.98-3.34-.87-1-1.93-1.8-3.19-2.39-1.02-.47-2.04-.79-3.04-.94-1-.16-2.04-.27-3.1-.35Z"/>
    <path class="st1" d="M512.76,698.14c-.28-.75-.36-1.49-.27-2.24.1-.75.35-1.39.77-1.92s.95-.91,1.62-1.12c.67-.22,1.42-.15,2.24.21.75.32,1.39.78,1.92,1.39s1.17,1.09,1.92,1.45c1.02.51,2.07.89,3.13,1.12.75.2,1.5.32,2.24.38.75.06,1.51.09,2.3.09.59-.16,1.1-.31,1.53-.47.43-.16.91-.49,1.42-1,.59-.51.97-1.12,1.15-1.83.18-.71.18-1.41,0-2.1-.18-.69-.51-1.32-1-1.89-.49-.57-1.09-.95-1.8-1.15-1.38-.47-2.76-.84-4.13-1.09-1.38-.26-2.72-.56-4.01-.92-1.3-.35-2.53-.86-3.69-1.51s-2.23-1.58-3.22-2.8c-.55-.67-.91-1.26-1.06-1.77-.16-.51-.33-1.16-.53-1.95-.35-1.89-.21-3.48.44-4.78.65-1.3,1.47-2.48,2.45-3.54,1.26-1.38,2.69-2.43,4.28-3.16,1.59-.73,3.27-1.2,5.02-1.42,1.75-.22,3.52-.18,5.31.12,1.79.29,3.49.8,5.11,1.51.94.39,1.54,1,1.8,1.83.26.83.27,1.63.03,2.42-.24.79-.69,1.44-1.36,1.95-.67.51-1.46.69-2.36.53-.94-.2-1.83-.4-2.66-.62-.83-.22-1.65-.4-2.48-.56-.63-.12-1.31-.14-2.04-.06-.73.08-1.42.21-2.07.38-.65.18-1.25.37-1.8.59-.55.22-.96.44-1.24.68-.32.28-.62.63-.92,1.06-.29.43-.46.92-.5,1.48-.08.67.18,1.22.77,1.65.59.43,1.22.75,1.89.94,1.3.28,2.64.54,4.01.8,1.38.26,2.73.61,4.07,1.06,1.34.45,2.59,1.03,3.75,1.74,1.16.71,2.15,1.65,2.98,2.83.9,1.02,1.55,2.18,1.95,3.48.39,1.3.54,2.6.44,3.9-.1,1.3-.4,2.55-.92,3.75-.51,1.2-1.22,2.25-2.12,3.16-.63.63-1.29,1.17-1.98,1.62s-1.43.89-2.21,1.33c-1.57.83-3.27,1.24-5.08,1.24s-3.62-.27-5.43-.8c-1.81-.53-3.52-1.28-5.14-2.24-1.61-.96-2.99-2.02-4.13-3.16l-.41-.59Z"/>
  </g>
</svg>